<?xml version="1.0" standalone="no"?>
<!DOCTYPE svg PUBLIC "-//W3C//DTD SVG 20010904//EN"
 "http://www.w3.org/TR/2001/REC-SVG-20010904/DTD/svg10.dtd">
<svg version="1.0" xmlns="http://www.w3.org/2000/svg"
 width="512.000000pt" height="512.000000pt" viewBox="0 0 512.000000 512.000000"
 preserveAspectRatio="xMidYMid meet">

<g transform="translate(0.000000,512.000000) scale(0.100000,-0.100000)"
fill="#000000" stroke="none">
<path d="M2325 4949 c-254 -24 -579 -117 -819 -234 -232 -113 -504 -310 -672
-487 -626 -659 -832 -1574 -548 -2427 239 -718 797 -1276 1514 -1515 1022
-340 2128 31 2738 917 560 814 560 1900 0 2714 -497 722 -1337 1114 -2213
1032z m-45 -909 c132 -33 256 -60 277 -60 21 0 151 28 289 62 235 58 254 61
293 50 55 -17 106 -64 125 -115 11 -30 156 -886 156 -922 0 -3 -387 -5 -860
-5 -473 0 -860 2 -860 5 0 23 143 888 151 913 22 66 103 131 167 132 12 0 130
-27 262 -60z m1573 -1164 c38 -16 94 -76 103 -112 12 -48 -2 -121 -30 -159
-58 -76 59 -70 -1366 -70 -1425 0 -1308 -6 -1366 70 -28 38 -42 111 -30 159 9
35 64 96 101 112 45 20 2541 20 2588 0z m-2016 -571 c145 -49 256 -144 321
-275 20 -41 38 -77 39 -79 2 -2 33 10 70 27 94 43 182 62 293 62 111 0 199
-19 293 -62 37 -17 68 -29 70 -27 1 2 19 38 40 80 135 272 470 379 750 238 75
-38 190 -151 230 -226 34 -65 67 -190 67 -258 0 -265 -187 -496 -445 -550 -88
-18 -132 -18 -220 0 -211 44 -377 203 -430 410 -8 32 -15 75 -15 95 0 35 -3
38 -72 73 -97 50 -165 67 -269 67 -99 0 -190 -24 -281 -74 -53 -29 -58 -34
-58 -66 0 -54 -27 -148 -63 -220 -91 -183 -324 -314 -528 -296 -295 26 -519
268 -519 561 0 68 33 193 67 258 63 119 212 236 346 272 88 23 226 19 314 -10z"/>
</g>
</svg>
