<svg version="1.0" xmlns="http://www.w3.org/2000/svg"
 width="3508.000000pt" height="3508.000000pt" viewBox="0 0 3508.000000 3508.000000"
 preserveAspectRatio="xMidYMid meet">
<g transform="translate(0.000000,3508.000000) scale(0.100000,-0.100000)"
fill="#000000" stroke="none">
<path d="M15095 29156 c-612 -159 -1345 -419 -1885 -668 -36 -17 -94 -44 -130
-60 -36 -17 -200 -97 -365 -178 -284 -140 -383 -193 -507 -273 -29 -19 -93
-58 -143 -87 -214 -125 -449 -278 -870 -565 -121 -82 -348 -253 -466 -349 -47
-39 -116 -96 -154 -126 -38 -30 -112 -93 -165 -140 -53 -47 -166 -146 -251
-220 -203 -177 -428 -398 -663 -650 -700 -752 -1256 -1509 -1741 -2368 -57
-101 -58 -104 -39 -122 33 -31 315 -220 329 -220 8 0 25 19 38 43 260 460 448
762 680 1092 161 228 522 695 538 695 5 0 9 -1497 9 -3650 0 -2912 -3 -3651
-12 -3655 -7 -2 -50 -15 -96 -29 -108 -33 -312 -139 -431 -224 -339 -241 -689
-707 -814 -1082 -51 -152 -66 -222 -97 -430 -6 -41 -17 -102 -23 -135 -6 -33
-12 -130 -12 -215 0 -230 41 -384 137 -520 23 -34 50 -73 58 -86 8 -13 24 -27
35 -31 39 -12 -107 -45 -400 -89 -124 -19 -276 -15 -315 7 -37 21 -100 81
-115 109 -7 14 -43 117 -80 230 -37 113 -96 291 -130 395 -35 105 -109 332
-164 505 -56 173 -106 325 -111 336 -4 12 -11 42 -15 66 -6 39 -3 52 21 89 32
52 59 86 123 154 26 28 161 174 300 325 743 805 1134 1240 1232 1370 84 111
135 201 165 290 24 71 25 221 2 265 -8 17 -18 68 -22 113 -8 102 -36 163 -100
219 -55 48 -101 63 -196 63 -86 0 -133 -12 -220 -58 -142 -74 -226 -152 -574
-532 -717 -784 -1115 -1208 -1157 -1230 -10 -6 -16 -5 -17 3 0 7 -8 32 -17 57
-14 37 -16 63 -9 150 9 135 7 310 -5 324 -5 6 -12 43 -16 81 -10 101 -40 242
-65 306 -121 310 -379 516 -755 605 -67 16 -118 19 -310 18 -210 0 -241 -3
-355 -27 -312 -66 -559 -181 -810 -376 -379 -293 -645 -695 -734 -1106 -29
-137 -36 -181 -42 -278 -4 -54 -10 -93 -14 -87 -19 31 -26 -261 -10 -390 37
-285 165 -543 358 -722 109 -101 213 -159 357 -199 70 -20 105 -23 270 -24
197 0 210 -3 268 -48 23 -19 22 -24 -12 -109 -27 -69 -46 -111 -112 -256 -16
-35 -29 -65 -29 -67 0 -2 -15 -36 -34 -77 -132 -285 -152 -343 -162 -458 -3
-41 -12 -92 -20 -113 -19 -50 -18 -183 1 -238 54 -153 185 -239 364 -239 256
0 447 146 609 465 28 55 157 336 287 625 287 636 287 635 344 672 50 31 79 35
120 14 70 -37 81 -61 230 -517 471 -1433 488 -1478 579 -1600 126 -169 248
-220 527 -220 156 -1 304 17 900 106 445 66 515 79 638 120 199 65 343 183
426 351 19 37 42 76 52 87 37 41 36 234 -2 270 -10 10 -19 25 -20 35 0 14 -2
14 -9 -3 -8 -19 -9 -18 -9 4 -1 13 4 41 10 61 9 29 15 36 30 33 13 -4 19 0 19
10 0 17 108 117 127 117 7 0 16 8 22 18 8 14 12 15 23 4 11 -11 13 -418 15
-2245 l2 -2232 -40 45 c-118 133 -449 576 -631 845 -192 283 -457 720 -575
947 -18 36 -40 69 -48 71 -13 6 -332 -201 -348 -225 -8 -12 99 -212 250 -463
349 -582 763 -1160 1169 -1631 44 -50 121 -140 173 -200 254 -295 677 -721
889 -896 31 -27 73 -65 92 -85 19 -21 57 -56 86 -78 28 -22 96 -78 150 -125
55 -47 117 -99 139 -115 22 -16 60 -47 85 -70 52 -49 250 -202 297 -231 17
-10 109 -75 203 -142 202 -146 467 -323 674 -451 140 -87 454 -271 461 -271 2
0 30 -15 62 -34 135 -78 503 -266 676 -345 37 -17 97 -45 135 -62 373 -173
1011 -416 1362 -519 41 -12 86 -26 100 -31 14 -5 121 -36 238 -69 218 -62 315
-77 331 -51 5 8 37 90 72 184 46 124 60 173 53 185 -6 8 -41 23 -80 34 -116
30 -378 103 -514 143 -352 103 -880 299 -1290 479 -200 89 -709 337 -752 367
l-28 20 1 3927 c0 2160 4 3950 7 3977 l7 50 87 5 c59 4 92 10 105 21 34 31 62
39 415 128 441 111 493 130 648 234 127 86 171 93 315 51 172 -50 328 -20 493
96 83 58 148 129 218 236 76 117 88 144 347 749 130 303 257 591 283 640 167
322 377 488 505 402 19 -12 35 -32 37 -43 2 -17 -53 -166 -108 -289 -241 -542
-280 -647 -280 -747 0 -32 -8 -77 -17 -100 -13 -31 -18 -70 -18 -143 1 -121
24 -183 92 -246 103 -94 233 -115 441 -68 66 14 543 143 687 185 181 53 294
117 420 235 57 54 118 105 136 115 48 25 130 21 214 -10 165 -60 266 -56 565
19 504 128 587 155 745 243 100 56 128 67 167 67 26 0 53 6 59 13 17 16 110
15 174 -1 72 -19 68 -12 410 -682 76 -148 175 -342 220 -430 86 -167 223 -435
415 -810 133 -261 286 -558 420 -820 54 -104 150 -293 215 -420 65 -126 159
-311 210 -410 51 -99 145 -283 210 -410 65 -126 163 -318 218 -425 254 -496
312 -610 422 -825 65 -126 161 -315 215 -420 54 -104 148 -289 210 -410 285
-556 339 -662 430 -840 54 -104 148 -289 210 -410 62 -121 159 -310 215 -420
56 -110 153 -299 215 -420 62 -121 154 -301 205 -400 300 -585 365 -714 365
-727 0 -16 -200 -144 -440 -283 -489 -283 -1046 -553 -1525 -740 -66 -26 -147
-57 -180 -70 -33 -13 -130 -48 -215 -78 -85 -30 -159 -62 -164 -70 -7 -10 4
-40 38 -103 25 -49 67 -131 93 -181 52 -104 51 -104 143 -73 164 55 643 243
805 315 33 15 80 36 105 47 143 64 269 124 460 220 189 95 281 143 525 277 83
46 421 248 470 281 22 15 56 36 75 47 197 109 723 483 1015 722 49 40 164 133
255 206 198 158 327 280 810 765 214 214 406 417 465 490 55 68 123 149 150
179 138 154 488 606 646 836 158 230 188 275 305 460 271 427 554 942 714
1295 23 52 49 103 57 112 8 9 15 27 15 40 1 38 -114 288 -274 598 -52 102
-211 415 -353 695 -141 281 -263 516 -271 524 -11 12 -41 0 -206 -84 -106 -53
-201 -105 -212 -115 -18 -17 -13 -28 154 -361 95 -189 217 -429 270 -534 211
-412 380 -754 380 -769 0 -9 -46 -105 -101 -213 -324 -634 -658 -1170 -1059
-1703 -189 -251 -290 -375 -306 -375 -17 0 -37 36 -254 460 -78 154 -169 330
-200 390 -31 61 -108 209 -170 330 -131 255 -258 503 -375 730 -45 88 -129
250 -185 360 -56 110 -137 268 -180 350 -42 83 -124 240 -180 350 -96 187
-137 267 -356 693 -159 308 -261 505 -359 697 -243 473 -437 851 -550 1070
-45 88 -126 246 -180 350 -99 194 -217 422 -355 690 -43 83 -128 249 -190 370
-62 121 -141 274 -175 340 -125 241 -244 481 -250 506 -7 27 -6 27 65 34 108
11 124 17 130 50 5 28 8 29 140 56 257 54 350 85 467 161 126 82 194 94 335
62 100 -23 232 -14 458 30 367 72 484 113 605 215 137 115 194 131 310 86 39
-15 95 -37 125 -48 82 -31 263 -29 485 6 94 15 231 36 305 48 305 46 455 103
568 217 43 43 81 94 106 142 44 84 69 115 108 136 65 34 139 8 243 -84 190
-169 469 -229 890 -192 118 10 456 35 620 45 314 19 424 41 589 117 101 47
112 50 170 46 41 -4 86 -17 138 -41 138 -64 117 -62 668 -62 493 0 507 1 610
23 268 60 448 157 616 333 112 118 177 237 219 404 41 157 43 270 11 471 -29
184 -47 266 -78 359 -34 105 -133 295 -242 464 -91 142 -142 232 -179 317 -5
13 -3 71 8 157 18 147 10 242 -22 254 -12 5 -13 17 -9 62 23 209 -183 378
-385 317 -72 -22 -108 -44 -172 -105 -85 -80 -155 -190 -317 -496 -29 -55 -56
-104 -60 -110 -4 -5 -26 -46 -50 -90 -50 -93 -88 -163 -131 -241 -138 -251
-183 -368 -177 -464 2 -32 0 -56 -4 -54 -13 8 -28 -71 -28 -148 0 -123 50
-214 152 -275 149 -90 330 -81 479 23 140 99 204 116 270 71 34 -23 77 -88 78
-119 2 -41 -102 -115 -199 -141 -19 -5 -183 -13 -365 -17 -237 -6 -345 -13
-385 -23 -160 -43 -256 -109 -331 -225 -27 -42 -49 -83 -49 -91 0 -29 -40 21
-46 58 -16 101 -73 185 -143 213 -47 18 -134 36 -216 43 -44 4 -83 9 -88 12
-10 6 32 46 112 108 157 122 258 292 302 510 18 88 16 298 -3 327 -9 13 -17
59 -21 108 -14 201 -83 351 -222 478 -309 283 -908 262 -1372 -48 -387 -259
-705 -718 -796 -1150 -32 -150 -37 -181 -43 -275 -4 -52 -11 -92 -15 -89 -5 3
-9 4 -9 2 0 -2 -5 -69 -9 -149 -11 -173 -22 -218 -62 -264 -35 -40 -45 -38
-54 8 -11 50 -55 103 -110 134 -49 28 -52 28 -227 28 -97 0 -180 3 -183 7 -11
10 17 90 74 216 27 59 93 206 146 327 132 299 385 869 512 1155 58 129 123
276 145 325 22 50 49 109 59 133 153 338 358 805 380 868 40 113 53 213 36
289 -7 33 -17 59 -22 58 -6 -1 -10 33 -10 80 0 71 -4 90 -30 142 -36 72 -92
118 -172 141 -137 40 -329 -31 -463 -169 -96 -100 -132 -166 -336 -629 -62
-141 -123 -279 -135 -305 -40 -90 -57 -128 -139 -313 -45 -102 -90 -203 -100
-225 -10 -22 -32 -74 -50 -115 -18 -41 -43 -97 -55 -125 -13 -27 -32 -70 -43
-95 -48 -110 -137 -309 -157 -355 -12 -27 -37 -84 -55 -125 -18 -41 -41 -95
-52 -119 -11 -23 -62 -140 -114 -260 -52 -119 -101 -229 -109 -246 -7 -16 -57
-129 -110 -250 -101 -231 -106 -244 -150 -340 -41 -92 -139 -323 -164 -390
-44 -115 -53 -133 -74 -139 -27 -7 -33 -2 -41 35 -9 48 -57 107 -106 131 -51
26 -155 29 -336 12 l-100 -9 13 25 c7 14 13 30 13 36 0 11 35 97 80 199 10 22
64 146 120 275 56 129 111 255 123 280 108 241 148 391 129 491 -6 32 -18 66
-26 74 -11 11 -13 29 -9 67 11 106 -43 214 -130 261 -60 32 -206 31 -292 -3
-96 -37 -185 -101 -270 -193 l-79 -86 -46 43 c-144 135 -347 160 -635 79 -405
-115 -799 -455 -1108 -955 -50 -80 -207 -397 -207 -417 0 -6 -13 -11 -28 -11
-49 0 -51 3 -155 205 -14 28 -37 100 -51 160 -38 164 -89 259 -195 365 -48 47
-107 96 -133 108 -55 27 -147 52 -188 52 -27 0 -33 7 -74 88 -71 141 -71 143
-20 258 36 81 43 110 44 161 0 56 9 84 91 275 110 256 160 383 184 463 24 79
26 228 4 270 -9 17 -19 66 -23 109 -8 92 -22 130 -62 169 -63 63 -143 82 -252
62 -171 -33 -299 -125 -431 -310 -53 -74 -131 -220 -131 -246 0 -6 -5 -9 -11
-7 -15 5 -76 116 -249 454 -152 297 -279 543 -422 819 -48 93 -88 172 -88 176
0 3 31 29 69 58 38 28 212 160 387 292 176 133 456 346 624 472 168 127 368
278 445 337 77 58 262 198 410 310 149 112 416 315 595 450 923 699 1360 1030
1808 1368 251 189 254 191 281 177 35 -17 368 -277 516 -400 312 -262 585
-515 885 -821 217 -222 493 -529 488 -543 -2 -5 -330 -256 -730 -557 -501
-376 -728 -552 -728 -565 0 -28 261 -369 283 -369 16 0 244 168 1222 905 154
116 355 261 448 324 135 92 167 118 167 137 0 12 -6 29 -12 36 -7 7 -51 60
-98 118 -332 413 -816 929 -1193 1274 -634 578 -1310 1078 -2032 1503 -431
253 -1004 540 -1415 708 -58 24 -151 62 -207 85 -74 30 -107 39 -119 32 -17
-9 -39 -48 -139 -240 -46 -89 -57 -117 -48 -130 5 -9 39 -28 74 -41 69 -25
285 -113 335 -136 16 -8 82 -36 145 -64 202 -87 588 -275 774 -376 411 -224
1013 -593 1015 -621 0 -7 -199 -162 -442 -346 -244 -184 -524 -396 -623 -472
-99 -75 -441 -334 -760 -575 -319 -241 -677 -512 -795 -602 -643 -486 -978
-740 -1180 -893 -351 -265 -783 -592 -1135 -859 -93 -71 -541 -410 -995 -753
-454 -343 -906 -685 -1005 -760 -448 -341 -595 -451 -805 -610 -321 -243 -948
-718 -1130 -856 -85 -65 -351 -266 -590 -447 -512 -387 -789 -596 -1070 -810
-710 -539 -957 -722 -1039 -771 -51 -30 -115 -72 -142 -92 -27 -21 -54 -38
-59 -38 -7 0 -10 1654 -10 4745 0 4680 0 4744 19 4762 37 34 524 272 820 400
399 173 774 313 1146 428 66 20 131 40 145 45 46 16 344 98 457 126 62 15 114
33 117 40 4 10 -104 270 -147 354 -17 34 -51 35 -162 6z m-2887 -6318 l-3
-4623 -40 -10 c-135 -34 -256 -116 -344 -232 -50 -65 -119 -197 -176 -333 -15
-36 -35 -83 -45 -105 -10 -22 -39 -89 -65 -150 -26 -60 -64 -147 -86 -192 -21
-46 -39 -85 -39 -88 0 -2 -11 -28 -24 -57 -13 -29 -36 -82 -51 -118 -38 -91
-49 -118 -76 -175 l-23 -50 -7 55 c-4 30 -7 2301 -8 5046 l-1 4990 28 26 c47
44 378 276 609 428 122 80 244 159 270 176 26 18 56 32 66 33 16 1 17 -223 15
-4621z m15415 688 c18 -7 43 -26 57 -41 22 -23 25 -35 24 -90 -2 -67 -12 -108
-51 -195 -14 -30 -29 -64 -33 -75 -5 -11 -25 -55 -45 -98 -19 -43 -35 -80 -35
-82 0 -4 -28 -66 -96 -213 -19 -40 -34 -75 -34 -77 0 -3 -11 -28 -24 -57 -13
-29 -34 -75 -46 -103 -13 -27 -33 -72 -45 -100 -13 -27 -32 -70 -43 -95 -10
-25 -36 -83 -57 -130 -21 -47 -47 -105 -57 -130 -27 -60 -66 -147 -133 -295
-14 -31 -25 -57 -25 -59 0 -2 -20 -47 -45 -99 -25 -53 -45 -98 -45 -101 0 -3
-13 -34 -29 -68 -15 -35 -38 -85 -51 -113 -12 -27 -33 -74 -46 -103 -13 -29
-24 -55 -24 -57 0 -3 -16 -40 -36 -83 -20 -42 -40 -86 -45 -97 -19 -44 -141
-322 -154 -350 -45 -100 -69 -154 -81 -182 -31 -72 -48 -111 -76 -173 -17 -36
-34 -74 -39 -85 -63 -146 -101 -233 -109 -247 -6 -10 -10 -42 -10 -72 0 -47 4
-57 32 -85 40 -39 58 -39 284 -6 93 14 208 25 256 25 78 0 89 -2 117 -26 28
-23 31 -31 31 -82 0 -94 -33 -164 -108 -235 -87 -80 -221 -131 -417 -157 -157
-21 -291 -41 -410 -61 -33 -5 -120 -12 -194 -16 -157 -6 -192 2 -248 59 -38
39 -38 39 -38 121 1 86 14 135 77 282 17 39 36 85 44 103 32 75 51 117 119
267 14 31 25 57 25 60 0 2 16 39 36 82 20 43 40 87 45 98 29 68 93 215 104
240 55 120 145 326 145 330 0 2 13 33 29 67 15 35 38 86 51 113 21 47 30 69
67 155 9 19 28 62 43 95 24 54 103 232 150 340 10 22 34 78 55 125 21 47 46
104 56 128 26 58 56 125 90 200 16 34 29 65 29 68 0 2 20 47 45 100 25 52 45
97 45 100 0 3 13 33 29 67 16 34 52 116 81 182 29 66 68 154 87 195 19 41 44
98 55 125 11 28 37 87 59 133 21 45 39 85 39 87 0 3 16 39 35 79 43 90 109
182 162 224 107 84 246 122 326 88z m-7717 -558 c36 -73 95 -187 129 -253 34
-66 115 -223 180 -350 65 -126 155 -302 200 -390 155 -299 271 -530 290 -575
22 -52 22 -70 -4 -125 -10 -22 -31 -73 -47 -112 -20 -50 -33 -71 -43 -68 -9 4
-11 0 -7 -11 7 -19 -8 -65 -80 -243 -56 -137 -65 -158 -103 -243 -11 -26 -21
-50 -21 -53 0 -2 -26 -60 -59 -127 -32 -68 -66 -144 -76 -170 -10 -27 -21 -48
-24 -48 -10 0 -89 138 -161 280 -35 69 -82 161 -105 205 -23 44 -104 202 -180
350 -76 149 -175 342 -220 430 -45 88 -138 268 -205 400 -255 499 -303 590
-316 605 -12 12 -20 12 -46 2 -30 -11 -31 -11 -15 5 41 42 814 621 829 622 12
1 36 -37 84 -131z m1819 -583 c36 -35 34 -102 -5 -210 -7 -19 -173 -413 -213
-505 -11 -25 -25 -58 -32 -75 -29 -68 -108 -253 -125 -290 -10 -22 -30 -69
-45 -105 -15 -36 -38 -89 -51 -118 -13 -29 -24 -55 -24 -57 0 -3 -16 -39 -35
-81 -19 -41 -35 -77 -35 -80 0 -2 -10 -26 -21 -52 -12 -26 -27 -60 -34 -77 -7
-16 -24 -55 -36 -85 -15 -34 -24 -75 -24 -107 0 -46 4 -56 34 -87 46 -48 87
-48 175 -2 142 74 309 108 432 87 95 -16 159 -49 228 -118 92 -92 137 -203
157 -385 20 -192 -11 -437 -85 -668 -77 -240 -183 -436 -351 -645 -94 -117
-281 -304 -373 -373 -77 -56 -254 -152 -284 -152 -9 0 -27 -4 -40 -9 -26 -10
-56 -18 -208 -56 -58 -14 -121 -30 -141 -36 -20 -5 -81 -9 -135 -9 -109 0
-165 15 -243 65 -33 20 -58 28 -97 29 -61 1 -71 -6 -154 -112 -51 -64 -126
-132 -180 -161 -59 -32 -158 -61 -206 -61 -42 0 -56 5 -78 26 -51 51 -32 159
67 374 14 30 39 89 55 130 16 41 41 100 55 130 14 31 35 80 47 110 12 30 33
79 47 110 14 30 32 73 41 95 8 22 19 44 24 50 4 5 8 15 8 22 0 7 16 47 35 89
19 41 35 77 35 80 0 2 10 26 21 52 29 65 41 93 84 197 20 50 45 108 55 130 10
22 34 81 55 130 20 50 45 108 55 130 9 22 48 112 85 200 37 88 85 199 106 248
21 48 39 89 39 92 0 3 8 24 19 48 16 36 70 161 116 272 7 17 19 46 28 65 8 19
27 64 42 100 33 79 46 110 74 172 11 26 21 50 21 53 0 2 12 30 26 62 37 82 50
111 73 169 11 28 30 73 42 100 12 27 27 63 34 79 116 276 151 358 171 403 13
29 24 55 24 57 0 3 11 28 25 57 14 28 25 56 25 61 0 5 20 51 45 102 78 162
189 282 316 339 42 19 71 25 132 25 70 1 80 -2 102 -24z m9455 -155 c62 -32
80 -66 80 -153 0 -42 -5 -88 -11 -104 -14 -37 -15 -268 -1 -313 6 -19 16 -55
23 -80 21 -73 82 -183 210 -380 221 -341 279 -500 279 -755 -1 -190 -35 -305
-130 -444 -70 -102 -226 -236 -330 -283 -19 -9 -56 -25 -81 -36 -141 -64 -318
-81 -829 -82 -387 0 -460 7 -512 51 -32 26 -33 29 -31 101 3 126 60 210 180
265 98 45 166 53 458 53 266 0 293 2 447 39 81 19 184 93 231 164 54 81 72
147 71 257 -1 90 -23 188 -64 275 -5 11 -25 54 -43 96 -69 152 -98 207 -120
226 -85 76 -165 37 -232 -112 -65 -143 -163 -253 -254 -284 -87 -29 -185 -4
-251 64 -31 32 -33 39 -32 99 0 59 7 78 61 188 34 68 79 157 102 198 23 41 60
109 82 150 22 41 50 94 63 118 50 88 72 129 114 207 24 44 52 96 63 115 11 19
35 64 54 100 74 139 154 230 235 265 48 21 122 19 168 -5z m-2131 -466 c178
-46 313 -153 385 -304 l41 -85 0 -165 c-1 -182 -11 -228 -76 -351 -38 -71
-145 -184 -221 -232 -161 -103 -295 -136 -678 -167 -204 -16 -354 -30 -467
-42 -94 -10 -104 -13 -131 -42 -45 -47 -56 -91 -38 -158 8 -31 21 -69 30 -86
24 -46 108 -115 164 -135 100 -34 175 -34 717 8 291 23 562 35 625 28 114 -12
146 -48 137 -156 -8 -113 -64 -194 -171 -249 -89 -46 -140 -53 -656 -89 -162
-12 -344 -25 -405 -29 -303 -22 -325 -23 -421 -10 -196 24 -304 71 -401 173
-95 99 -135 196 -155 374 -16 145 3 362 44 518 53 201 159 414 291 589 82 109
272 297 380 377 190 139 417 229 632 250 106 10 304 1 374 -17z m-11475 -579
c40 -77 150 -293 246 -480 96 -187 227 -443 292 -570 65 -126 155 -303 200
-391 l82 -162 -37 -75 c-20 -41 -37 -77 -37 -80 0 -3 -16 -40 -35 -81 -19 -42
-35 -80 -35 -84 0 -10 -125 -319 -158 -393 -11 -24 -41 -96 -67 -159 -26 -63
-55 -133 -65 -155 -10 -22 -39 -92 -65 -155 -26 -63 -55 -133 -65 -155 -10
-22 -39 -92 -65 -155 -26 -63 -53 -128 -60 -145 -27 -63 -64 -162 -76 -200
-31 -105 -41 -124 -70 -139 -30 -15 -30 -15 -45 19 -8 19 -14 39 -14 44 0 20
-56 75 -95 92 -50 23 -134 24 -235 4 -215 -43 -263 -48 -242 -22 5 6 13 28 17
47 4 19 57 149 117 289 60 140 122 293 138 340 59 176 75 328 45 427 -8 27
-17 78 -20 114 -4 36 -18 103 -32 149 -22 70 -35 93 -80 142 -98 106 -213 146
-393 136 -257 -14 -491 -129 -780 -381 -41 -36 -80 -66 -86 -66 -5 0 -26 16
-45 36 -56 59 -103 78 -189 78 -92 -1 -191 -29 -279 -81 -73 -43 -190 -164
-239 -245 -31 -52 -121 -256 -267 -603 -37 -88 -86 -205 -110 -260 -23 -55
-78 -183 -120 -285 -106 -252 -193 -459 -210 -495 -7 -16 -30 -70 -50 -120
-53 -131 -124 -273 -140 -279 -10 -3 -16 6 -21 32 -25 136 -126 195 -295 172
-43 -6 -108 -17 -146 -25 -58 -13 -153 -20 -153 -12 1 22 59 169 140 356 170
391 214 559 189 722 -7 44 -16 74 -19 68 -4 -6 -10 47 -14 117 -4 70 -10 133
-13 141 -3 8 -1 13 4 11 5 -2 22 12 37 30 16 18 76 69 135 114 58 45 144 111
191 147 67 52 435 329 560 421 28 21 436 333 516 395 29 22 78 58 109 80 32
22 63 45 69 50 6 6 47 37 91 70 44 33 82 62 85 65 3 3 59 46 125 96 66 50 165
125 220 167 55 43 161 122 235 177 74 55 203 152 285 215 83 64 265 202 405
307 140 106 257 194 260 197 14 16 104 74 134 86 20 8 54 15 76 15 22 0 40 5
40 11 0 20 -34 69 -48 69 -8 0 -35 -17 -61 -38 -25 -22 -65 -52 -88 -67 -24
-15 -43 -31 -43 -36 0 -5 -19 -21 -42 -36 -46 -30 -148 -103 -213 -153 -293
-227 -415 -320 -422 -320 -3 0 -27 -19 -53 -42 -26 -24 -67 -57 -91 -74 -24
-16 -105 -76 -179 -133 -74 -56 -155 -118 -180 -136 -25 -19 -58 -45 -73 -57
-16 -13 -39 -30 -52 -38 -44 -29 -180 -135 -229 -177 -26 -24 -54 -43 -62 -43
-7 0 -17 -6 -21 -14 -4 -8 -42 -37 -83 -64 -41 -28 -115 -83 -165 -122 -49
-39 -128 -99 -175 -135 -47 -35 -92 -71 -100 -78 -8 -8 -28 -22 -45 -33 -16
-10 -51 -36 -76 -59 -25 -22 -72 -58 -104 -80 -62 -43 -94 -66 -250 -184 -55
-42 -112 -85 -127 -96 -15 -11 -70 -54 -123 -95 -53 -41 -113 -86 -134 -100
-21 -14 -53 -41 -71 -59 -18 -18 -43 -37 -54 -42 -12 -5 -34 -20 -51 -32 -16
-12 -66 -49 -109 -81 l-80 -59 -25 34 c-33 44 -79 90 -111 111 -25 16 -25 16
-5 36 11 10 115 90 230 177 116 88 264 200 330 250 66 50 212 161 325 246 380
287 654 494 905 684 648 489 748 565 860 650 66 50 251 190 410 310 160 121
382 290 495 377 113 86 213 156 223 155 13 -1 41 -45 91 -142z m7452 14 c26
-27 29 -37 28 -92 -1 -64 -17 -121 -59 -214 -14 -29 -25 -55 -25 -58 0 -2 -16
-38 -35 -79 -19 -42 -35 -78 -35 -81 0 -3 -16 -39 -35 -81 -19 -41 -35 -78
-35 -80 0 -3 -13 -33 -29 -67 -16 -34 -57 -127 -91 -207 -34 -80 -75 -173 -91
-208 -16 -35 -29 -65 -29 -67 0 -3 -13 -34 -30 -70 -16 -36 -30 -68 -30 -70 0
-2 -13 -34 -30 -69 -55 -121 -62 -141 -63 -186 -1 -62 23 -95 84 -115 27 -9
53 -14 59 -10 6 4 36 11 68 16 31 5 80 13 107 19 269 51 366 52 397 6 12 -17
9 -122 -3 -153 -31 -75 -41 -93 -78 -135 -49 -55 -114 -98 -206 -136 -74 -30
-132 -44 -345 -82 -36 -7 -99 -19 -140 -28 -41 -9 -119 -16 -174 -17 l-98 0
-57 62 c-103 112 -130 110 -263 -14 -96 -89 -222 -179 -267 -190 -14 -3 -30
-9 -36 -13 -5 -4 -26 -11 -45 -15 -19 -4 -51 -11 -70 -15 -19 -4 -57 -13 -85
-19 -27 -5 -81 -17 -120 -26 -207 -47 -349 -48 -451 -4 -67 28 -157 119 -193
194 -47 98 -61 171 -61 336 0 276 65 524 212 807 145 280 400 591 628 768 254
197 533 298 777 281 100 -7 142 -27 229 -108 60 -56 66 -59 113 -59 55 0 99
28 126 80 29 56 134 147 218 189 74 37 89 41 158 41 71 0 77 -2 105 -31z
m-5704 -315 c14 -10 36 -34 49 -53 21 -31 24 -45 23 -131 -1 -90 -3 -100 -39
-175 -49 -100 -160 -215 -248 -258 -150 -73 -282 -55 -335 43 -30 57 -30 170
-1 254 54 151 210 301 352 337 56 14 171 5 199 -17z m-309 -1082 c50 -52 35
-119 -98 -447 -43 -104 -86 -210 -97 -235 -22 -50 -37 -85 -48 -115 -5 -11
-15 -36 -23 -55 -8 -19 -27 -64 -42 -100 -15 -36 -33 -78 -40 -95 -7 -16 -25
-59 -40 -95 -15 -36 -58 -141 -96 -234 -39 -93 -76 -183 -84 -200 -14 -30 -20
-70 -17 -112 3 -29 44 -68 88 -82 39 -12 17 -16 364 75 165 43 273 50 297 18
11 -15 13 -35 9 -77 -23 -230 -222 -380 -636 -478 -19 -5 -78 -21 -130 -35
-52 -15 -111 -31 -130 -36 -94 -23 -120 -29 -185 -43 -154 -35 -308 -14 -348
47 -19 29 -24 168 -8 209 5 13 21 55 36 93 15 39 33 84 40 100 7 17 30 71 50
120 20 50 43 105 51 123 32 73 44 101 79 187 20 50 43 105 51 123 32 73 43
100 69 162 15 36 34 81 42 100 19 44 33 79 43 105 5 11 18 42 30 69 12 27 30
72 41 100 11 28 27 66 35 84 36 81 45 103 79 187 96 233 130 298 198 376 53
60 141 129 193 151 21 8 50 20 64 26 14 6 50 11 81 11 48 1 59 -3 82 -27z
m-2065 -567 c54 -29 84 -61 118 -125 15 -28 18 -57 18 -145 -1 -106 -18 -187
-63 -290 -22 -50 -41 -95 -66 -155 -15 -36 -35 -83 -45 -105 -15 -35 -85 -195
-126 -292 -8 -18 -20 -48 -28 -65 -8 -18 -24 -58 -37 -88 -13 -30 -31 -70 -41
-88 -10 -18 -18 -37 -18 -42 0 -5 -14 -39 -31 -76 -39 -86 -44 -114 -29 -159
14 -42 60 -75 105 -75 17 0 64 10 105 21 41 12 91 25 110 29 19 5 51 13 70 19
180 51 308 71 364 57 25 -6 26 -9 26 -76 0 -39 -4 -78 -8 -88 -5 -9 -19 -39
-32 -65 -31 -64 -150 -174 -237 -219 -67 -36 -196 -83 -263 -98 -19 -5 -78
-20 -130 -35 -52 -14 -126 -34 -165 -45 -38 -10 -131 -35 -205 -55 -173 -48
-307 -57 -358 -26 -49 31 -72 76 -72 143 0 31 4 67 9 80 5 13 14 41 20 63 14
45 13 43 71 180 48 114 70 164 111 253 16 35 29 65 29 68 0 2 10 26 21 52 12
26 27 61 34 77 11 26 39 91 105 240 86 194 103 252 103 342 0 61 -4 78 -26
112 -44 67 -148 121 -232 121 -72 0 -217 -53 -306 -111 -85 -57 -206 -181
-273 -282 -54 -82 -156 -272 -190 -357 -10 -25 -24 -58 -31 -75 -7 -16 -34
-79 -60 -140 -26 -60 -54 -126 -62 -145 -29 -66 -41 -95 -68 -160 -15 -36 -35
-83 -45 -105 -10 -22 -30 -69 -45 -105 -15 -36 -38 -89 -51 -118 -13 -29 -24
-55 -24 -57 0 -13 -91 -203 -129 -268 -94 -165 -242 -284 -392 -317 -67 -15
-102 -8 -136 26 -22 22 -24 30 -18 77 7 55 39 151 87 255 15 34 28 65 28 68 0
2 16 42 36 87 20 45 40 91 44 102 4 11 17 41 29 67 12 26 21 50 21 53 0 2 12
30 26 62 14 32 30 67 35 78 27 64 134 317 163 388 32 78 96 229 115 272 5 11
32 74 59 140 28 66 78 185 111 265 34 80 65 154 70 165 99 237 239 363 433
390 72 11 101 -1 162 -63 53 -54 58 -57 104 -56 52 0 69 10 135 71 126 118
294 238 417 296 153 72 220 87 380 83 104 -3 120 -6 168 -31z m-8609 -15 c90
-44 107 -145 46 -277 -64 -139 -96 -178 -664 -803 -342 -378 -473 -521 -556
-610 -44 -47 -152 -164 -240 -260 -88 -96 -199 -215 -246 -265 -169 -178 -179
-192 -179 -243 0 -25 5 -59 10 -76 21 -64 232 -709 296 -906 37 -113 95 -293
131 -400 35 -107 82 -251 104 -320 22 -69 52 -148 66 -177 48 -100 153 -172
288 -198 80 -15 124 -12 395 31 58 8 134 20 170 25 62 8 137 19 265 39 33 5
89 14 125 19 36 5 108 17 160 27 52 9 154 18 225 21 122 5 132 4 158 -17 25
-20 27 -27 27 -93 0 -83 -12 -123 -58 -194 -47 -73 -120 -136 -205 -177 -126
-60 -134 -62 -517 -121 -203 -31 -281 -42 -367 -55 -38 -5 -99 -14 -138 -19
-38 -6 -124 -17 -190 -26 -66 -9 -150 -20 -187 -25 -102 -15 -294 -12 -368 6
-83 19 -131 53 -185 128 -66 93 -107 193 -211 510 -53 160 -100 300 -104 311
-5 11 -25 72 -45 135 -21 63 -41 124 -45 135 -8 21 -87 262 -260 795 -56 173
-106 324 -110 335 -4 11 -25 72 -45 135 -43 133 -54 157 -87 186 -51 47 -124
35 -170 -27 -13 -19 -40 -72 -60 -119 -20 -47 -55 -125 -78 -175 -23 -49 -47
-103 -55 -120 -7 -16 -24 -55 -38 -85 -14 -30 -35 -77 -47 -105 -12 -27 -35
-77 -50 -110 -15 -33 -37 -82 -50 -110 -12 -27 -35 -77 -50 -110 -15 -33 -34
-76 -43 -95 -9 -19 -34 -75 -56 -123 -23 -49 -41 -91 -41 -93 0 -2 -15 -37
-34 -77 -18 -39 -44 -94 -56 -122 -12 -27 -38 -84 -57 -125 -19 -41 -50 -108
-69 -147 -73 -158 -188 -294 -293 -347 -115 -59 -237 -53 -315 15 -76 67 -80
154 -15 309 40 97 92 215 133 305 21 44 41 89 46 100 5 11 25 55 45 98 19 43
35 80 35 82 0 2 18 42 40 89 22 47 40 87 40 90 0 2 18 42 39 88 21 45 55 119
74 163 34 79 50 114 148 327 27 59 49 109 49 113 0 3 20 48 45 101 25 52 45
97 45 100 0 3 13 33 29 67 16 34 36 80 46 102 10 22 30 67 45 100 15 33 34 76
43 95 13 31 41 96 107 245 130 293 210 549 210 668 0 196 -128 362 -334 435
-98 35 -281 36 -400 3 -366 -101 -693 -439 -791 -816 -29 -111 -39 -232 -25
-308 45 -252 172 -397 439 -500 52 -20 99 -46 123 -68 38 -36 38 -37 38 -113
0 -107 -42 -183 -138 -250 -78 -54 -135 -68 -277 -68 -169 1 -236 21 -371 110
-104 69 -225 214 -296 357 -84 166 -120 383 -99 602 6 70 16 153 22 183 84
443 390 867 831 1153 165 107 358 194 508 227 195 44 203 45 440 45 215 0 243
-2 325 -24 119 -31 227 -79 325 -144 78 -52 202 -187 242 -262 69 -133 82
-191 83 -365 0 -140 -14 -273 -35 -340 -4 -14 -13 -45 -20 -70 -17 -59 -78
-237 -95 -275 -7 -16 -24 -57 -38 -90 -14 -33 -41 -95 -61 -138 -20 -42 -36
-83 -36 -90 0 -7 -4 -17 -9 -22 -5 -6 -12 -26 -16 -45 -13 -77 59 -141 141
-125 44 8 72 35 384 370 113 121 246 262 295 315 50 52 167 178 260 280 94
101 206 223 250 270 44 47 215 234 380 415 338 372 394 430 490 502 153 115
270 148 364 103z m13766 -550 c31 -49 65 -112 190 -355 54 -104 135 -262 180
-350 193 -375 400 -777 550 -1070 59 -115 140 -273 180 -350 40 -77 123 -239
185 -360 62 -121 141 -274 175 -340 34 -66 113 -219 175 -340 62 -121 145
-283 185 -360 40 -77 121 -234 180 -350 59 -115 138 -268 175 -340 37 -71 120
-233 185 -360 65 -126 143 -279 175 -340 32 -60 106 -204 165 -320 222 -433
300 -584 375 -730 75 -145 157 -306 365 -710 107 -209 236 -458 355 -690 43
-82 121 -235 175 -340 136 -266 262 -511 366 -712 49 -94 89 -179 89 -189 0
-19 -42 -65 -280 -309 -265 -270 -438 -437 -448 -434 -10 4 -43 67 -312 594
-78 154 -175 343 -215 420 -40 77 -132 257 -205 400 -73 143 -174 341 -225
440 -88 172 -185 362 -435 850 -62 121 -154 301 -205 400 -51 99 -145 284
-210 410 -65 127 -164 320 -220 430 -216 422 -326 638 -435 850 -62 121 -156
306 -210 410 -208 405 -322 629 -435 850 -168 329 -323 632 -430 840 -51 99
-152 297 -225 440 -73 143 -168 328 -210 410 -277 538 -420 826 -420 848 0 14
8 32 19 39 10 7 41 33 70 57 43 37 51 49 51 79 0 29 10 46 68 106 37 39 100
110 139 158 77 91 117 125 161 137 21 6 35 23 60 77 19 38 42 78 51 89 10 11
21 28 24 38 10 27 25 20 52 -23z m-3097 -290 c30 -56 52 -103 50 -104 -1 -2
-54 -13 -117 -25 -79 -15 -117 -19 -125 -11 -6 6 -6 10 0 10 5 0 9 20 10 45 0
24 6 50 11 57 6 7 26 51 44 97 l33 84 20 -26 c12 -15 45 -72 74 -127z m-5418
-12 c66 -29 129 -97 148 -157 16 -54 15 -197 -2 -263 -20 -77 -47 -152 -57
-162 -5 -6 -9 -16 -9 -23 0 -8 -16 -46 -35 -86 -19 -39 -35 -75 -35 -79 0 -4
-13 -37 -30 -73 -16 -36 -30 -67 -30 -70 0 -2 -16 -38 -35 -79 -19 -42 -35
-78 -35 -81 0 -3 -21 -51 -46 -107 -25 -57 -52 -118 -60 -135 -8 -18 -21 -50
-30 -70 -9 -21 -26 -63 -39 -93 -13 -30 -27 -65 -30 -77 -10 -38 6 -93 37
-123 47 -47 56 -46 473 62 22 6 88 13 147 15 102 4 107 3 118 -18 18 -32 3
-133 -28 -197 -39 -79 -150 -181 -254 -230 -74 -36 -181 -72 -303 -103 -212
-55 -561 -138 -623 -150 -90 -17 -159 0 -212 50 l-40 38 0 80 c0 97 16 146
125 386 19 43 35 81 35 83 0 3 13 33 29 67 16 34 38 85 49 113 12 27 37 85 56
127 20 42 36 79 36 82 0 2 16 40 36 82 19 43 39 87 44 98 4 11 15 36 23 55 36
83 45 109 61 177 17 67 17 75 2 128 -54 184 -275 234 -503 114 -229 -120 -384
-335 -582 -804 -35 -82 -76 -178 -92 -213 -16 -35 -29 -65 -29 -67 0 -3 -13
-34 -30 -70 -16 -36 -30 -68 -30 -70 0 -3 -16 -39 -35 -81 -19 -41 -35 -77
-35 -79 0 -3 -11 -28 -24 -57 -14 -30 -34 -77 -45 -106 -81 -205 -193 -382
-292 -461 -135 -108 -322 -143 -374 -68 -32 46 -21 96 65 302 23 55 48 114 55
130 7 17 24 56 39 88 14 32 26 60 26 62 0 3 10 27 21 53 12 26 27 61 34 77 7
17 22 51 34 77 12 26 21 49 21 52 0 3 14 34 30 68 17 34 30 65 30 70 0 4 16
42 35 84 19 41 35 77 35 80 0 2 10 26 21 52 27 61 41 92 74 172 15 36 35 83
45 105 10 22 29 67 43 100 61 147 103 243 141 328 14 32 26 60 26 62 0 2 12
30 26 62 14 32 33 74 42 93 25 56 100 157 145 196 58 49 151 91 234 106 88 15
118 4 174 -63 44 -53 93 -74 148 -63 18 4 64 36 114 78 195 170 336 258 507
316 92 32 150 39 265 36 80 -3 111 -9 155 -28z m-8620 -369 c116 -19 213 -86
256 -179 9 -19 22 -38 27 -42 20 -13 -53 -243 -141 -440 -11 -24 -36 -81 -57
-128 -20 -47 -53 -118 -71 -158 -19 -41 -34 -75 -34 -77 0 -2 -16 -39 -35 -82
-20 -43 -40 -87 -45 -98 -35 -81 -87 -186 -106 -216 -22 -36 -24 -36 -66 -29
-23 5 -46 6 -50 4 -4 -3 -10 8 -13 23 -36 177 -88 239 -250 303 -145 57 -225
113 -280 196 -19 29 -35 61 -35 71 0 11 -5 24 -10 29 -8 8 -6 20 3 40 8 16 22
60 31 98 9 38 34 105 56 149 136 271 413 494 666 536 70 12 81 12 154 0z
m5542 -299 c87 -25 103 -126 41 -270 -8 -19 -19 -44 -23 -55 -4 -11 -20 -46
-34 -78 -14 -32 -26 -60 -26 -63 0 -3 -13 -33 -29 -67 -16 -34 -48 -107 -71
-162 -23 -55 -50 -118 -60 -140 -10 -22 -34 -78 -55 -125 -20 -47 -43 -100
-51 -117 -28 -65 -43 -99 -68 -160 -14 -35 -38 -89 -52 -120 -15 -32 -32 -71
-39 -88 -79 -184 -80 -188 -77 -247 3 -38 46 -85 84 -92 36 -6 62 -2 298 45
113 22 243 38 272 32 64 -12 68 -17 68 -94 0 -58 -5 -83 -30 -134 -34 -70
-130 -169 -196 -199 -21 -10 -56 -27 -78 -37 -36 -17 -137 -43 -266 -68 -30
-6 -110 -22 -178 -37 -68 -14 -159 -26 -205 -26 -95 -2 -119 9 -161 72 -33 50
-78 74 -127 67 -29 -4 -58 -23 -127 -84 -104 -92 -173 -140 -252 -175 -50 -22
-83 -30 -250 -58 -30 -5 -98 -17 -150 -26 -52 -9 -142 -16 -200 -16 -145 0
-218 29 -311 121 -36 36 -76 86 -88 110 -86 168 -100 418 -40 706 43 205 158
459 297 655 143 202 354 424 514 538 322 231 737 320 927 197 20 -13 58 -46
85 -74 44 -46 53 -51 92 -51 41 0 48 4 102 62 165 177 231 225 346 253 66 17
74 17 118 5z m2276 -435 c11 -13 22 -21 26 -18 16 16 2 -29 -46 -145 l-53
-127 -3 148 c-3 160 5 195 38 177 10 -5 27 -21 38 -35z m-584 -691 c9 -69 7
-8622 -2 -8628 -22 -13 -845 539 -950 637 l-32 31 2 3276 c2 2539 6 3280 15
3296 7 12 31 27 56 34 50 13 147 66 147 79 0 5 27 35 61 67 74 72 165 190 215
281 21 37 79 159 130 272 127 284 119 268 139 259 5 -3 54 91 55 104 0 4 15
40 34 80 18 40 50 115 71 166 21 50 41 92 45 92 4 0 10 -21 14 -46z"/>
<path d="M11945 27033 c-16 -9 -48 -31 -69 -50 -22 -18 -44 -33 -49 -33 -5 0
-35 -19 -67 -42 -32 -24 -88 -63 -125 -88 -37 -25 -84 -58 -105 -75 -22 -16
-49 -37 -62 -47 -17 -12 -20 -19 -12 -28 8 -8 18 -5 40 13 80 67 405 276 438
282 36 7 53 32 44 68 -3 14 -7 14 -33 0z"/>
<path d="M19660 22698 c-41 -34 -95 -78 -119 -99 -24 -22 -49 -39 -56 -39 -6
0 -22 -11 -35 -25 -13 -14 -43 -37 -67 -51 -44 -25 -55 -44 -27 -44 15 0 55
26 120 80 154 125 212 156 280 148 19 -2 34 0 34 4 0 21 -34 88 -44 87 -6 0
-45 -28 -86 -61z"/>
<path d="M21135 20066 c-94 -26 -193 -85 -280 -168 -136 -129 -231 -286 -360
-598 -26 -63 -40 -96 -69 -162 -8 -18 -23 -55 -34 -83 -11 -27 -34 -81 -52
-120 -24 -51 -33 -85 -34 -127 -1 -54 2 -60 39 -97 72 -75 254 -139 354 -126
134 19 264 70 364 144 143 106 299 335 427 626 36 83 77 236 86 327 18 182
-76 347 -221 386 -54 14 -165 14 -220 -2z m165 -481 c39 -38 70 -106 70 -152
0 -25 -49 -152 -83 -213 -99 -180 -128 -222 -227 -321 -119 -119 -108 -120
-181 24 -34 67 -70 144 -80 171 -19 56 -18 60 50 181 24 44 33 72 32 104 0 41
4 48 70 116 39 40 96 87 127 104 50 28 65 31 120 28 57 -3 65 -6 102 -42z"/>
<path d="M28590 21355 c-97 -16 -121 -24 -211 -71 -122 -63 -279 -229 -316
-333 -16 -46 2 -104 40 -137 25 -21 39 -24 105 -24 42 0 126 5 187 11 335 32
466 74 529 169 39 59 52 122 36 184 -29 121 -92 177 -223 202 -40 8 -72 13
-72 13 0 -1 -34 -7 -75 -14z"/>
<path d="M23825 20658 c-218 -53 -416 -217 -607 -500 -57 -86 -146 -260 -162
-318 -28 -101 -35 -135 -47 -212 -14 -99 -2 -198 34 -276 25 -54 102 -123 155
-139 48 -15 156 -17 198 -4 16 5 54 14 84 21 208 46 348 156 438 342 51 106
92 196 92 202 0 4 16 41 36 84 20 42 40 86 45 97 4 11 29 67 54 125 63 145 62
141 73 175 46 131 36 225 -30 300 -21 24 -54 53 -73 65 -71 44 -197 61 -290
38z m125 -448 c22 -11 44 -29 50 -40 6 -11 15 -18 20 -15 8 5 4 -13 -19 -82
-5 -16 -27 -68 -49 -118 -21 -49 -56 -128 -76 -175 -114 -259 -169 -332 -300
-395 -127 -60 -293 -82 -353 -46 -33 21 -54 62 -34 69 6 2 11 14 11 26 0 13 9
52 21 87 96 297 387 641 589 695 65 18 96 17 140 -6z"/>
<path d="M9390 17134 c-161 -29 -301 -108 -444 -250 -241 -241 -386 -525 -402
-788 -13 -193 46 -328 166 -383 95 -43 166 -40 385 19 61 17 170 76 219 119
73 64 121 145 216 364 73 167 89 203 115 260 13 28 33 73 45 100 12 28 28 64
36 80 7 17 23 66 35 110 26 96 21 154 -18 227 -29 53 -92 103 -162 126 -39 14
-153 23 -191 16z m-82 -795 l3 -281 -26 -44 c-71 -122 -276 -214 -447 -202
-65 5 -75 9 -100 37 -15 17 -28 39 -28 48 0 9 3 13 7 9 4 -4 16 26 25 66 35
143 157 356 271 475 33 35 69 63 80 63 10 0 40 17 66 39 71 59 125 90 136 79
6 -5 11 -119 13 -289z"/>
<path d="M15312 28530 c-35 -10 -75 -23 -88 -29 -14 -6 -33 -11 -44 -11 -10 0
-61 -14 -112 -31 -51 -18 -143 -44 -204 -59 -61 -15 -120 -32 -130 -38 -11 -6
-49 -18 -84 -27 -36 -9 -91 -28 -122 -41 -32 -13 -82 -30 -111 -38 -28 -8 -77
-25 -107 -39 -30 -13 -80 -32 -110 -41 -30 -10 -64 -22 -74 -28 -11 -6 -58
-23 -105 -39 -46 -16 -94 -35 -105 -42 -12 -8 -48 -24 -81 -36 -33 -12 -69
-28 -80 -35 -11 -7 -45 -21 -75 -31 -30 -10 -91 -35 -135 -56 -43 -22 -84 -39
-91 -39 -6 0 -22 -8 -35 -19 -13 -10 -42 -24 -64 -31 -40 -13 -113 -46 -175
-79 -19 -11 -53 -28 -75 -38 -22 -11 -62 -31 -90 -45 -27 -15 -58 -29 -67 -32
-17 -5 -25 -45 -13 -58 3 -3 35 10 72 30 36 19 134 66 217 104 83 39 178 82
211 98 375 173 1048 425 1405 524 220 62 436 123 498 141 52 16 102 52 102 74
0 16 -54 12 -128 -9z"/>
<path d="M22090 28103 c0 -21 51 -55 136 -89 493 -198 923 -398 1249 -579 72
-40 162 -89 200 -110 110 -59 255 -144 318 -187 55 -37 86 -45 94 -23 2 6 -5
15 -15 20 -28 16 -80 47 -130 80 -104 68 -164 105 -214 132 -29 15 -66 37 -83
49 -16 12 -48 27 -70 34 -22 7 -49 20 -60 29 -11 9 -33 23 -50 31 -16 8 -39
22 -50 31 -19 16 -578 299 -590 299 -4 0 -62 27 -131 60 -69 33 -155 69 -192
82 -37 12 -74 28 -83 35 -8 7 -42 22 -74 33 -32 11 -82 32 -112 46 -55 27
-143 44 -143 27z"/>
<path d="M24775 26570 c-28 -22 -70 -57 -95 -78 -25 -21 -61 -49 -80 -62 -19
-13 -95 -69 -169 -124 -73 -56 -148 -112 -167 -126 -18 -14 -93 -71 -166 -128
-73 -57 -153 -118 -178 -137 -25 -19 -60 -47 -79 -62 -18 -15 -44 -33 -57 -39
-27 -15 -311 -231 -384 -293 -19 -17 -39 -31 -44 -31 -5 0 -25 -15 -46 -32
-20 -18 -63 -51 -95 -73 -32 -22 -67 -50 -79 -63 -11 -13 -37 -33 -56 -44 -19
-12 -63 -43 -96 -70 -34 -26 -65 -48 -69 -48 -4 0 -24 -15 -45 -32 -21 -18
-66 -54 -101 -81 -154 -114 -326 -247 -350 -270 -15 -14 -44 -37 -65 -51 -153
-103 -392 -281 -475 -355 -25 -23 -49 -41 -54 -41 -4 0 -24 -15 -45 -32 -20
-18 -60 -49 -89 -68 -28 -19 -72 -54 -98 -77 -25 -24 -51 -43 -57 -43 -10 0
-42 -24 -191 -140 -61 -48 -171 -132 -260 -199 -44 -34 -87 -67 -95 -74 -8 -8
-40 -30 -70 -49 -104 -67 -390 -293 -390 -308 0 -17 10 -12 88 49 42 32 165
124 272 203 107 80 250 187 316 239 67 52 180 137 250 189 71 52 134 99 141
105 27 24 541 413 609 460 31 22 74 54 94 70 20 17 50 40 66 52 16 12 76 58
134 103 58 44 254 192 435 329 182 137 375 284 430 326 91 71 198 151 465 349
52 38 97 73 100 76 32 36 787 597 820 609 48 16 119 13 166 -8 63 -29 249
-173 502 -389 136 -117 196 -152 77 -46 -37 33 -99 89 -138 125 -40 36 -85 75
-102 88 -16 12 -46 35 -65 51 -85 72 -129 107 -174 140 -26 19 -77 61 -114 93
-36 31 -69 57 -72 57 -3 0 -28 -18 -55 -40z"/>
<path d="M25590 25956 c0 -2 7 -9 15 -16 9 -7 15 -8 15 -2 0 5 -7 12 -15 16
-8 3 -15 4 -15 2z"/>
<path d="M25655 25890 c3 -5 8 -10 11 -10 2 0 4 5 4 10 0 6 -5 10 -11 10 -5 0
-7 -4 -4 -10z"/>
<path d="M25680 25875 c0 -7 84 -84 88 -80 5 5 -71 85 -80 85 -5 0 -8 -2 -8
-5z"/>
<path d="M27345 24646 c-33 -18 -107 -68 -163 -111 -57 -44 -120 -91 -140
-105 -21 -14 -48 -35 -62 -47 -14 -13 -28 -23 -33 -23 -4 0 -29 -19 -55 -43
-26 -24 -63 -53 -82 -65 -19 -11 -82 -57 -140 -102 -58 -45 -127 -96 -155
-114 -27 -19 -59 -43 -69 -55 -11 -11 -24 -21 -29 -21 -5 0 -31 -19 -57 -42
-26 -24 -73 -61 -105 -83 -32 -22 -108 -77 -169 -122 -179 -132 -177 -131
-339 -262 -57 -46 -134 -66 -227 -59 -72 5 -74 -6 -10 -40 74 -38 114 -24 262
89 51 39 152 114 223 168 72 53 189 140 260 195 72 54 216 162 320 240 209
156 226 169 406 305 68 52 183 133 254 182 128 86 185 130 185 143 0 10 -12 6
-75 -28z"/>
<path d="M7696 23049 c70 -73 280 -199 333 -199 29 0 111 38 111 51 0 4 -33 8
-72 7 -97 -2 -132 11 -267 98 -63 41 -119 74 -124 74 -6 0 2 -14 19 -31z"/>
<path d="M26265 8828 l-60 -62 55 49 c77 69 83 75 73 75 -5 0 -35 -28 -68 -62z"/>
<path d="M9890 8826 c0 -2 7 -9 15 -16 9 -7 15 -8 15 -2 0 5 -7 12 -15 16 -8
3 -15 4 -15 2z"/>
<path d="M10021 8704 c18 -20 43 -40 54 -46 11 -6 0 10 -25 36 -24 25 -49 46
-54 46 -5 0 6 -16 25 -36z"/>
<path d="M10151 8587 c2 -2 31 -28 64 -58 33 -30 85 -74 114 -99 30 -25 71
-59 90 -76 20 -17 92 -75 161 -130 139 -110 150 -118 194 -154 111 -91 478
-351 741 -525 989 -656 2038 -1148 3177 -1489 328 -98 442 -119 523 -97 35 9
95 49 95 63 0 2 -46 4 -102 4 -136 -1 -252 12 -308 35 -25 10 -83 28 -130 39
-46 12 -92 26 -103 32 -10 5 -62 20 -114 34 -53 13 -101 28 -107 33 -6 5 -60
23 -120 40 -59 17 -127 40 -150 50 -22 10 -69 26 -103 35 -35 8 -85 27 -112
40 -27 14 -84 35 -128 46 -43 12 -85 27 -93 34 -8 8 -33 19 -55 26 -22 7 -78
29 -125 50 -47 21 -105 44 -130 51 -25 7 -52 18 -61 26 -8 7 -42 22 -75 33
-66 22 -102 38 -124 56 -8 6 -43 21 -77 32 -33 12 -78 33 -98 47 -21 14 -42
25 -48 25 -15 0 -399 190 -425 211 -13 10 -40 23 -60 30 -20 6 -48 20 -62 29
-14 10 -52 32 -85 49 -33 18 -105 59 -160 91 -55 33 -106 60 -113 60 -17 0
-49 19 -97 56 -22 17 -58 41 -80 53 -50 27 -95 54 -162 98 -28 18 -55 33 -60
33 -5 0 -24 13 -43 28 -19 16 -51 37 -70 48 -19 10 -43 25 -53 33 -9 8 -26 19
-36 25 -11 6 -58 38 -106 71 -48 33 -107 71 -130 85 -23 14 -55 35 -71 48 -45
36 -178 133 -235 172 -97 67 -274 202 -314 239 -22 21 -74 63 -115 93 -41 31
-84 65 -94 77 -11 11 -24 21 -30 21 -6 0 -27 15 -46 32 -72 67 -134 118 -144
118 -5 0 -7 -2 -5 -3z"/>
<path d="M25954 8547 c-27 -23 -65 -57 -84 -75 -19 -17 -40 -32 -46 -32 -6 0
-19 -10 -30 -21 -10 -12 -37 -36 -60 -53 -23 -17 -74 -58 -114 -91 -40 -33
-105 -84 -144 -113 -39 -29 -85 -64 -103 -78 -17 -14 -45 -35 -62 -47 -17 -12
-66 -50 -110 -84 -44 -35 -83 -63 -87 -63 -7 0 -112 -75 -152 -108 -15 -13
-45 -33 -67 -44 -22 -11 -58 -36 -81 -54 -23 -19 -45 -34 -50 -34 -5 0 -33
-18 -62 -40 -29 -22 -55 -40 -57 -40 -3 0 -24 -11 -46 -26 -22 -14 -55 -33
-72 -43 -64 -36 -144 -86 -242 -150 -55 -36 -123 -77 -150 -91 -28 -14 -64
-34 -80 -46 -17 -12 -42 -24 -56 -27 -14 -4 -41 -17 -60 -29 -19 -13 -59 -36
-89 -52 -30 -16 -66 -37 -80 -46 -14 -10 -42 -23 -62 -29 -20 -7 -47 -20 -60
-30 -25 -20 -410 -211 -424 -211 -5 0 -29 -14 -54 -30 -25 -16 -51 -30 -58
-30 -7 0 -55 -20 -105 -44 -51 -24 -109 -49 -130 -56 -21 -6 -63 -25 -95 -41
-31 -16 -64 -29 -72 -29 -8 0 -44 -14 -80 -31 -36 -17 -90 -40 -119 -50 -30
-11 -65 -26 -77 -34 -13 -8 -57 -24 -99 -35 -43 -11 -96 -30 -119 -42 -68 -35
-226 -79 -304 -85 -80 -6 -86 -15 -32 -45 59 -31 109 -22 334 62 605 225 1031
424 1776 828 78 42 200 115 255 152 22 15 99 62 170 105 150 90 365 233 580
384 138 97 501 373 586 445 20 17 65 54 100 81 60 48 87 70 223 189 103 89
121 106 110 106 -6 0 -32 -19 -60 -43z"/>
</g>
</svg>
